<svg id="visual" viewBox="0 0 900 600" width="900" height="600" xmlns="http://www.w3.org/2000/svg" xmlns:xlink="http://www.w3.org/1999/xlink" version="1.1"><path d="M0 67L13.7 76C27.3 85 54.7 103 82 108C109.3 113 136.7 105 163.8 105C191 105 218 113 245.2 113C272.3 113 299.7 105 327 103C354.3 101 381.7 105 409 101C436.3 97 463.7 85 491 90C518.3 95 545.7 117 573 114C600.3 111 627.7 83 654.8 72C682 61 709 67 736.2 80C763.3 93 790.7 113 818 111C845.3 109 872.7 85 886.3 73L900 61L900 0L886.3 0C872.7 0 845.3 0 818 0C790.7 0 763.3 0 736.2 0C709 0 682 0 654.8 0C627.7 0 600.3 0 573 0C545.7 0 518.3 0 491 0C463.7 0 436.3 0 409 0C381.7 0 354.3 0 327 0C299.7 0 272.3 0 245.2 0C218 0 191 0 163.8 0C136.7 0 109.3 0 82 0C54.7 0 27.3 0 13.7 0L0 0Z" fill="#015753"></path><path d="M0 163L13.7 171C27.3 179 54.7 195 82 202C109.3 209 136.7 207 163.8 209C191 211 218 217 245.2 209C272.3 201 299.7 179 327 180C354.3 181 381.7 205 409 211C436.3 217 463.7 205 491 209C518.3 213 545.7 233 573 220C600.3 207 627.7 161 654.8 144C682 127 709 139 736.2 151C763.3 163 790.7 175 818 173C845.3 171 872.7 155 886.3 147L900 139L900 59L886.3 71C872.7 83 845.3 107 818 109C790.7 111 763.3 91 736.2 78C709 65 682 59 654.8 70C627.7 81 600.3 109 573 112C545.7 115 518.3 93 491 88C463.7 83 436.3 95 409 99C381.7 103 354.3 99 327 101C299.7 103 272.3 111 245.2 111C218 111 191 103 163.8 103C136.7 103 109.3 111 82 106C54.7 101 27.3 83 13.7 74L0 65Z" fill="#0b827b"></path><path d="M0 265L13.7 264C27.3 263 54.7 261 82 264C109.3 267 136.7 275 163.8 276C191 277 218 271 245.2 265C272.3 259 299.7 253 327 262C354.3 271 381.7 295 409 299C436.3 303 463.7 287 491 283C518.3 279 545.7 287 573 273C600.3 259 627.7 223 654.8 214C682 205 709 223 736.2 235C763.3 247 790.7 253 818 252C845.3 251 872.7 243 886.3 239L900 235L900 137L886.3 145C872.7 153 845.3 169 818 171C790.7 173 763.3 161 736.2 149C709 137 682 125 654.8 142C627.7 159 600.3 205 573 218C545.7 231 518.3 211 491 207C463.7 203 436.3 215 409 209C381.7 203 354.3 179 327 178C299.7 177 272.3 199 245.2 207C218 215 191 209 163.8 207C136.7 205 109.3 207 82 200C54.7 193 27.3 177 13.7 169L0 161Z" fill="#25a29b"></path><path d="M0 451L13.7 459C27.3 467 54.7 483 82 472C109.3 461 136.7 423 163.8 398C191 373 218 361 245.2 358C272.3 355 299.7 361 327 386C354.3 411 381.7 455 409 460C436.3 465 463.7 431 491 434C518.3 437 545.7 477 573 469C600.3 461 627.7 405 654.8 381C682 357 709 365 736.2 386C763.3 407 790.7 441 818 445C845.3 449 872.7 423 886.3 410L900 397L900 233L886.3 237C872.7 241 845.3 249 818 250C790.7 251 763.3 245 736.2 233C709 221 682 203 654.8 212C627.7 221 600.3 257 573 271C545.7 285 518.3 277 491 281C463.7 285 436.3 301 409 297C381.7 293 354.3 269 327 260C299.7 251 272.3 257 245.2 263C218 269 191 275 163.8 274C136.7 273 109.3 265 82 262C54.7 259 27.3 261 13.7 262L0 263Z" fill="#0b827b"></path><path d="M0 601L13.7 601C27.3 601 54.7 601 82 601C109.3 601 136.7 601 163.8 601C191 601 218 601 245.2 601C272.3 601 299.7 601 327 601C354.3 601 381.7 601 409 601C436.3 601 463.7 601 491 601C518.3 601 545.7 601 573 601C600.3 601 627.7 601 654.8 601C682 601 709 601 736.2 601C763.3 601 790.7 601 818 601C845.3 601 872.7 601 886.3 601L900 601L900 395L886.3 408C872.7 421 845.3 447 818 443C790.7 439 763.3 405 736.2 384C709 363 682 355 654.8 379C627.7 403 600.3 459 573 467C545.7 475 518.3 435 491 432C463.7 429 436.3 463 409 458C381.7 453 354.3 409 327 384C299.7 359 272.3 353 245.2 356C218 359 191 371 163.8 396C136.7 421 109.3 459 82 470C54.7 481 27.3 465 13.7 457L0 449Z" fill="#015753"></path></svg>